<mxfile host="Electron" modified="2024-02-19T18:22:47.265Z" agent="Mozilla/5.0 (Windows NT 10.0; Win64; x64) AppleWebKit/537.36 (KHTML, like Gecko) draw.io/23.1.5 Chrome/120.0.6099.109 Electron/28.1.0 Safari/537.36" etag="nVAWoog5TrR-pKuCCGHw" version="23.1.5" type="device">
  <diagram name="Page-1" id="O7pXKzIIld8HrC3WCBcu">
    <mxGraphModel dx="460" dy="312" grid="1" gridSize="10" guides="1" tooltips="1" connect="1" arrows="1" fold="1" page="1" pageScale="1" pageWidth="850" pageHeight="1100" math="0" shadow="0">
      <root>
        <mxCell id="0" />
        <mxCell id="1" parent="0" />
        <mxCell id="JfAgj0UY3d-NmZZKxooS-7" value="" style="edgeStyle=orthogonalEdgeStyle;rounded=0;orthogonalLoop=1;jettySize=auto;html=1;entryX=0.125;entryY=-0.01;entryDx=0;entryDy=0;shape=link;entryPerimeter=0;" edge="1" parent="1" source="JfAgj0UY3d-NmZZKxooS-1" target="JfAgj0UY3d-NmZZKxooS-2">
          <mxGeometry relative="1" as="geometry">
            <mxPoint x="430" y="210" as="targetPoint" />
            <Array as="points">
              <mxPoint x="460" y="290" />
              <mxPoint x="480" y="290" />
            </Array>
          </mxGeometry>
        </mxCell>
        <mxCell id="JfAgj0UY3d-NmZZKxooS-1" value="" style="whiteSpace=wrap;html=1;aspect=fixed;" vertex="1" parent="1">
          <mxGeometry x="390" y="300" width="80" height="80" as="geometry" />
        </mxCell>
        <mxCell id="JfAgj0UY3d-NmZZKxooS-21" value="" style="edgeStyle=orthogonalEdgeStyle;rounded=0;orthogonalLoop=1;jettySize=auto;html=1;entryX=0.12;entryY=-0.004;entryDx=0;entryDy=0;entryPerimeter=0;shape=link;" edge="1" parent="1" source="JfAgj0UY3d-NmZZKxooS-2" target="JfAgj0UY3d-NmZZKxooS-13">
          <mxGeometry relative="1" as="geometry">
            <mxPoint x="510" y="180" as="targetPoint" />
            <Array as="points">
              <mxPoint x="540" y="290" />
              <mxPoint x="560" y="290" />
              <mxPoint x="560" y="300" />
            </Array>
          </mxGeometry>
        </mxCell>
        <mxCell id="JfAgj0UY3d-NmZZKxooS-2" value="" style="whiteSpace=wrap;html=1;aspect=fixed;" vertex="1" parent="1">
          <mxGeometry x="470" y="300" width="80" height="80" as="geometry" />
        </mxCell>
        <mxCell id="JfAgj0UY3d-NmZZKxooS-8" value="PCB1" style="text;html=1;align=center;verticalAlign=middle;whiteSpace=wrap;rounded=0;" vertex="1" parent="1">
          <mxGeometry x="410" y="325" width="60" height="30" as="geometry" />
        </mxCell>
        <mxCell id="JfAgj0UY3d-NmZZKxooS-9" value="PCB2" style="text;html=1;align=center;verticalAlign=middle;whiteSpace=wrap;rounded=0;" vertex="1" parent="1">
          <mxGeometry x="490" y="325" width="60" height="30" as="geometry" />
        </mxCell>
        <mxCell id="JfAgj0UY3d-NmZZKxooS-11" value="" style="whiteSpace=wrap;html=1;aspect=fixed;" vertex="1" parent="1">
          <mxGeometry x="390" y="380" width="80" height="80" as="geometry" />
        </mxCell>
        <mxCell id="JfAgj0UY3d-NmZZKxooS-23" style="edgeStyle=orthogonalEdgeStyle;rounded=0;orthogonalLoop=1;jettySize=auto;html=1;entryX=0.092;entryY=0.988;entryDx=0;entryDy=0;entryPerimeter=0;exitX=0.875;exitY=1;exitDx=0;exitDy=0;exitPerimeter=0;shape=link;" edge="1" parent="1" source="JfAgj0UY3d-NmZZKxooS-12" target="JfAgj0UY3d-NmZZKxooS-14">
          <mxGeometry relative="1" as="geometry">
            <mxPoint x="550" y="480" as="targetPoint" />
            <Array as="points">
              <mxPoint x="540" y="470" />
              <mxPoint x="557" y="470" />
            </Array>
          </mxGeometry>
        </mxCell>
        <mxCell id="JfAgj0UY3d-NmZZKxooS-12" value="" style="whiteSpace=wrap;html=1;aspect=fixed;" vertex="1" parent="1">
          <mxGeometry x="470" y="380" width="80" height="80" as="geometry" />
        </mxCell>
        <mxCell id="JfAgj0UY3d-NmZZKxooS-25" value="" style="edgeStyle=orthogonalEdgeStyle;rounded=0;orthogonalLoop=1;jettySize=auto;html=1;entryX=1.009;entryY=0.103;entryDx=0;entryDy=0;entryPerimeter=0;shape=link;" edge="1" parent="1" source="JfAgj0UY3d-NmZZKxooS-13" target="JfAgj0UY3d-NmZZKxooS-14">
          <mxGeometry relative="1" as="geometry">
            <mxPoint x="750" y="340" as="targetPoint" />
            <Array as="points">
              <mxPoint x="640" y="370" />
              <mxPoint x="640" y="387" />
              <mxPoint x="631" y="387" />
            </Array>
          </mxGeometry>
        </mxCell>
        <mxCell id="JfAgj0UY3d-NmZZKxooS-13" value="" style="whiteSpace=wrap;html=1;aspect=fixed;" vertex="1" parent="1">
          <mxGeometry x="550" y="300" width="80" height="80" as="geometry" />
        </mxCell>
        <mxCell id="JfAgj0UY3d-NmZZKxooS-14" value="" style="whiteSpace=wrap;html=1;aspect=fixed;" vertex="1" parent="1">
          <mxGeometry x="550" y="380" width="80" height="80" as="geometry" />
        </mxCell>
        <mxCell id="JfAgj0UY3d-NmZZKxooS-15" value="PCB3" style="text;html=1;align=center;verticalAlign=middle;whiteSpace=wrap;rounded=0;" vertex="1" parent="1">
          <mxGeometry x="570" y="325" width="60" height="30" as="geometry" />
        </mxCell>
        <mxCell id="JfAgj0UY3d-NmZZKxooS-16" value="PCB4" style="text;html=1;align=center;verticalAlign=middle;whiteSpace=wrap;rounded=0;" vertex="1" parent="1">
          <mxGeometry x="410" y="405" width="60" height="30" as="geometry" />
        </mxCell>
        <mxCell id="JfAgj0UY3d-NmZZKxooS-17" value="PCB5" style="text;html=1;align=center;verticalAlign=middle;whiteSpace=wrap;rounded=0;" vertex="1" parent="1">
          <mxGeometry x="490" y="405" width="60" height="30" as="geometry" />
        </mxCell>
        <mxCell id="JfAgj0UY3d-NmZZKxooS-18" value="PCB6" style="text;html=1;align=center;verticalAlign=middle;whiteSpace=wrap;rounded=0;" vertex="1" parent="1">
          <mxGeometry x="570" y="405" width="60" height="30" as="geometry" />
        </mxCell>
        <mxCell id="JfAgj0UY3d-NmZZKxooS-22" style="edgeStyle=orthogonalEdgeStyle;rounded=0;orthogonalLoop=1;jettySize=auto;html=1;shape=link;" edge="1" parent="1" source="JfAgj0UY3d-NmZZKxooS-11">
          <mxGeometry relative="1" as="geometry">
            <mxPoint x="480" y="460" as="targetPoint" />
            <Array as="points">
              <mxPoint x="460" y="470" />
              <mxPoint x="480" y="470" />
            </Array>
          </mxGeometry>
        </mxCell>
        <mxCell id="JfAgj0UY3d-NmZZKxooS-26" value="" style="rounded=0;whiteSpace=wrap;html=1;" vertex="1" parent="1">
          <mxGeometry x="390" y="300" width="30" height="50" as="geometry" />
        </mxCell>
        <mxCell id="JfAgj0UY3d-NmZZKxooS-27" value="&lt;font style=&quot;font-size: 9px;&quot;&gt;Power Supply&amp;nbsp;&lt;/font&gt;" style="text;html=1;align=center;verticalAlign=middle;whiteSpace=wrap;rounded=0;" vertex="1" parent="1">
          <mxGeometry x="390" y="300" width="30" height="30" as="geometry" />
        </mxCell>
      </root>
    </mxGraphModel>
  </diagram>
</mxfile>
